<?xml version="1.0" encoding="UTF-8"?>
<svg id="Layer_1" data-name="Layer 1" xmlns="http://www.w3.org/2000/svg" viewBox="0 0 599.76 201.12">
  <defs>
    <style>
      .cls-1 {
        fill: #0298e8;
      }

      .cls-1, .cls-2, .cls-3, .cls-4, .cls-5 {
        stroke-width: 0px;
      }

      .cls-2 {
        fill: #333232;
      }

      .cls-3 {
        fill: #0198e8;
      }

      .cls-4 {
        fill: #323131;
      }

      .cls-5 {
        fill: #fefefe;
      }
    </style>
  </defs>
  <path class="cls-5" d="M599.76,149.82v51.3H0C0,167.32,0,133.52,0,99.72c.43.18.88.31,1.27.53,13.2,7.59,26.4,15.19,39.58,22.8.57.33.99.42,1.62.06,12.45-7.21,24.92-14.39,37.38-21.58.22-.12.4-.31.66-.51-.48-.29-.84-.53-1.22-.74-12.46-7.19-24.92-14.39-37.41-21.53-2-1.14-2.88-2.62-2.87-4.93.05-14.5.03-29,.03-43.49v-1.5c-.48.24-.73.36-.97.49-10.74,6.18-21.47,12.36-32.22,18.53-1.93,1.11-3.9,2.14-5.86,3.2C0,34.04,0,17.02,0,0c29.6,0,59.2,0,88.8,0-.33.27-.64.59-1.01.8-12.22,7.05-24.44,14.1-36.66,21.14-.34.19-.66.4-1.09.66.33.22.55.39.78.52,12.39,7.15,24.79,14.28,37.18,21.45.67.39,1.11.3,1.72-.06,11.69-6.76,23.4-13.5,35.1-20.25,1.45-.84,1.63-1.4.7-2.77-.27-.4-.77-.68-1.21-.93-11.35-6.55-22.71-13.09-34.06-19.65-.44-.25-.81-.61-1.22-.93,170.24,0,340.48,0,510.72,0v145.75c-.08-.2-.19-.4-.24-.61-1-4.28-3.38-7.42-7.54-9.09-.6-.24-1.25-.37-1.95-.57,4.65-3.24,5.34-9.54,2.6-13.84-2.57-4.02-6.38-6.25-11.02-6.52-5.78-.33-11.59-.14-17.38-.17-.11,0-.22.07-.34.11v46.95c7.56,0,15.05.38,22.49-.12,6.27-.42,10.67-4.09,12.79-10.18.22-.62.4-1.26.6-1.89ZM130.72,152.55c0-7.59-.02-15.18.02-22.77,0-1.01-.3-1.55-1.19-2.06-7.53-4.28-15.03-8.6-22.53-12.92-5.68-3.27-11.36-6.55-17.01-9.86-.79-.46-1.35-.49-2.16-.02-13.25,7.67-26.52,15.3-39.79,22.92-.71.41-.98.85-.98,1.69.03,15.34.03,30.67,0,46.01,0,.8.27,1.21.94,1.59,13.41,7.7,26.81,15.43,40.23,23.12.35.2,1,.21,1.34.01,13.42-7.69,26.82-15.41,40.24-23.11.69-.39.91-.83.91-1.6-.03-7.67-.02-15.34-.02-23.01ZM96.81,101.28c.36.24.58.4.81.54,12.44,7.16,24.88,14.31,37.3,21.49.58.34.98.27,1.52-.04,13.33-7.7,26.66-15.38,40.01-23.05.67-.38.93-.78.93-1.58-.03-15.38-.03-30.76,0-46.14,0-.77-.2-1.22-.89-1.61-12.31-7.06-24.6-14.15-36.9-21.22-.22-.13-.47-.2-.8-.33v1.32c0,14.46-.02,28.92.02,43.38,0,2.11-.82,3.53-2.65,4.57-12.73,7.29-25.43,14.63-38.14,21.95-.37.21-.73.43-1.21.72ZM130.73,30.31c-.39.19-.57.26-.74.35-11.78,6.78-23.55,13.57-35.33,20.33-.67.39-.8.85-.8,1.55.02,13.3.01,26.6.02,39.9,0,.33.05.66.08,1.09.3-.15.48-.22.65-.32,11.78-6.78,23.55-13.56,35.34-20.31.68-.39.8-.85.8-1.54-.02-13.26-.01-26.52-.01-39.78,0-.35,0-.7,0-1.27ZM83.45,93.32c.03-.42.06-.65.06-.87,0-13.42,0-26.83.02-40.25,0-.8-.38-1.11-.97-1.44-11.15-6.41-22.3-12.84-33.44-19.26-.61-.35-1.22-.69-1.96-1.11-.02.45-.04.72-.04.98,0,13.34,0,26.67-.02,40.01,0,.74.22,1.15.86,1.51,3.72,2.1,7.42,4.25,11.12,6.39,8.06,4.65,16.12,9.29,24.38,14.05ZM518.21,52.46v47.22h1.22c4.64,0,9.28.08,13.92-.03,2.51-.06,5.04-.22,7.5-.69,7-1.35,12.67-4.74,16.06-11.26,2.2-4.23,2.7-8.79,2.53-13.48-.35-9.97-6.5-17.95-16.13-20.46-2.94-.77-6.05-1.12-9.1-1.23-5.3-.2-10.62-.05-16-.05ZM340.5,70.08v-17.54h-12.52v47.05h12.6v-17.63h13.93v17.66h12.41v-47.08h-12.47v17.55h-13.96ZM516.92,115c0,.31,0,.5,0,.7,0,10.06-.04,20.13.02,30.19.02,4,1.37,7.64,4.03,10.64,5.82,6.57,13.2,8.23,21.45,6.1,8.3-2.14,13.52-8.8,13.66-17.36.16-9.94.04-19.89.04-29.83,0-.15-.07-.3-.1-.38h-12.53v1.53c0,9.19,0,18.37-.01,27.56,0,.83-.05,1.69-.27,2.48-.85,3.11-4.26,5.27-7.51,4.84-3.73-.49-6.13-3.12-6.13-6.75,0-9.43,0-18.85,0-28.28v-1.43h-12.64ZM513.43,99.68c-.12-.34-.17-.53-.25-.7-7.1-15.45-14.21-30.9-21.3-46.37-.3-.66-.69-.84-1.36-.81-1.16.05-2.33.13-3.47-.02-1.23-.16-1.73.39-2.2,1.42-6.92,15.15-13.87,30.27-20.82,45.41-.14.31-.25.64-.41,1.07,4.49,0,8.84.01,13.2-.03.27,0,.66-.38.8-.67.64-1.33,1.16-2.71,1.82-4.03.18-.36.72-.75,1.09-.76,5.32-.05,10.64-.02,15.96-.05.7,0,.98.28,1.22.86.54,1.33,1.08,2.66,1.72,3.94.16.33.66.7,1,.7,4.28.05,8.56.03,13.02.03ZM441.94,81.15h14.92v-10.49h-14.91v-6.55h18.11v-11.59h-30.49v47.08h30.48v-11.71h-18.09v-6.75ZM256.1,64.09h18.12v-11.55h-30.53v47.07h30.51v-11.7h-18.07v-6.81h14.8v-10.44h-14.83v-6.57ZM476.03,121.03c-5.56-5.16-13.94-8.54-23.3-6.71-15.34,3-24.24,18.84-18.55,33.2,4.88,12.33,19.91,18.81,32.83,14.16,3.37-1.21,6.38-3.03,9.04-5.49-2.43-3.23-4.8-6.37-7.18-9.52-.61.49-1.13.92-1.68,1.32-3.34,2.45-6.98,3.79-11.21,3.05-6.07-1.06-10.87-6.65-10.74-12.6.18-8.1,8.17-14.17,16.1-12.23,2.81.69,5.24,2.1,7.47,4.03,2.42-3.08,4.8-6.12,7.21-9.2ZM315.44,67.76c2.46-3.13,4.82-6.14,7.16-9.13-.07-.14-.09-.23-.14-.28-.23-.22-.46-.44-.71-.64-7.9-6.32-16.64-8.11-26.28-4.73-14.71,5.17-20.95,22.68-12.8,35.77,6.01,9.66,18.55,14.22,29.79,10.84,3.84-1.15,7.21-3.12,10.22-5.87-2.42-3.22-4.79-6.36-7.17-9.52-.57.46-1.06.86-1.58,1.24-2.72,2.02-5.67,3.41-9.16,3.29-5.35-.19-9.35-2.66-11.66-7.44-2.19-4.53-1.6-9,1.56-12.9,3.35-4.12,7.81-5.65,13.05-4.68,2.93.55,5.4,2.08,7.73,4.05ZM589.25,66.77c2.32-2.22,4.6-4.39,6.83-6.61.19-.19.16-.81,0-1.12-1.19-2.42-3.11-4.16-5.51-5.3-5.84-2.77-11.78-2.8-17.57.02-4.73,2.3-7.74,6.03-8.01,11.48-.27,5.37,2.4,9.23,6.83,11.92,2.14,1.3,4.5,2.22,6.72,3.39,1.87.98,3.71,2,5.49,3.13.91.58,1.71,1.46,1.45,2.68-.26,1.23-1.29,1.76-2.39,2.11-1.84.59-3.7.51-5.56.11-2.79-.6-5.07-2.02-6.88-4.39-2.5,2.61-4.93,5.14-7.54,7.87.77.96,1.57,2.22,2.63,3.2,6.74,6.19,19.39,6.82,26.76,1.41,7.35-5.4,7.76-15.44.69-21.18-2.13-1.73-4.69-2.99-7.16-4.26-2.12-1.08-4.42-1.83-6.6-2.8-1-.44-1.99-1.1-1.92-2.36.07-1.37,1.12-2.05,2.29-2.49.44-.17.93-.26,1.4-.28,3.17-.14,5.88.83,8.04,3.48ZM227,99.62v-35.43h11.25v-11.64h-35.11v11.69h11.34v35.37h12.52ZM493.82,150.35v-35.33h-12.44v46.98h30.52v-11.64h-18.08ZM406.06,87.89v-35.37h-12.43v47.09h30.5v-11.72h-18.08Z"/>
  <path class="cls-3" d="M0,51.06c1.95-1.07,3.93-2.1,5.86-3.2,10.74-6.17,21.48-12.35,32.22-18.53.24-.14.49-.25.97-.49v1.5c0,14.5.03,29-.03,43.49,0,2.31.87,3.79,2.87,4.93,12.49,7.14,24.94,14.34,37.41,21.53.38.22.75.45,1.22.74-.26.21-.44.39-.66.51-12.46,7.19-24.93,14.37-37.38,21.58-.63.36-1.05.27-1.62-.06-13.19-7.61-26.38-15.21-39.58-22.8-.4-.23-.85-.36-1.27-.53,0-4.55,0-9.11,0-13.66.08-.37.23-.74.23-1.12.02-5.49.02-10.97,0-16.46,0-.37-.15-.75-.23-1.12,0-5.43,0-10.87,0-16.3Z"/>
  <path class="cls-3" d="M89.04,0c.4.31.78.67,1.22.93,11.35,6.55,22.71,13.1,34.06,19.65.44.25.94.53,1.21.93.93,1.37.76,1.93-.7,2.77-11.7,6.74-23.41,13.48-35.1,20.25-.61.35-1.06.44-1.72.06-12.38-7.17-24.78-14.31-37.18-21.45-.23-.13-.45-.3-.78-.52.42-.26.75-.47,1.09-.66,12.22-7.05,24.44-14.09,36.66-21.14.37-.21.67-.53,1.01-.8.08,0,.16,0,.24,0Z"/>
  <path class="cls-2" d="M599.76,149.82c-.2.63-.38,1.26-.6,1.89-2.11,6.09-6.52,9.76-12.79,10.18-7.44.5-14.93.12-22.49.12v-46.95c.12-.04.23-.11.34-.11,5.8.03,11.61-.16,17.38.17,4.64.27,8.46,2.5,11.02,6.52,2.74,4.3,2.05,10.6-2.6,13.84.7.2,1.35.32,1.95.57,4.16,1.66,6.54,4.81,7.54,9.09.05.21.16.41.24.61v4.08ZM576.02,150.74c1.81,0,3.56.05,5.31-.02,1.07-.04,2.16-.14,3.18-.43,2.1-.61,3.27-2.26,3.2-4.23-.07-2.03-1.27-3.65-3.49-3.94-2.7-.35-5.46-.31-8.21-.43v9.06ZM576.03,133.4c1.74-.19,3.42-.22,5.02-.59,1.77-.42,2.66-1.76,2.63-3.4-.02-1.57-1.06-2.93-2.82-3.26-1.58-.3-3.22-.27-4.83-.39v7.65Z"/>
  <path class="cls-1" d="M0,67.36c.08.37.23.74.23,1.12.01,5.49.01,10.97,0,16.46,0,.37-.15.75-.23,1.12,0-6.23,0-12.47,0-18.7Z"/>
  <path class="cls-3" d="M130.72,152.55c0,7.67-.01,15.34.02,23.01,0,.78-.22,1.21-.91,1.6-13.42,7.69-26.82,15.42-40.24,23.11-.34.2-1,.19-1.34-.01-13.42-7.69-26.82-15.42-40.23-23.12-.67-.38-.94-.79-.94-1.59.03-15.34.03-30.67,0-46.01,0-.84.28-1.28.98-1.69,13.28-7.62,26.54-15.25,39.79-22.92.81-.47,1.38-.45,2.16.02,5.65,3.32,11.33,6.59,17.01,9.86,7.5,4.32,15,8.65,22.53,12.92.89.5,1.19,1.05,1.19,2.06-.05,7.59-.02,15.18-.02,22.77Z"/>
  <path class="cls-3" d="M96.81,101.28c.48-.28.84-.51,1.21-.72,12.71-7.32,25.41-14.66,38.14-21.95,1.82-1.05,2.65-2.46,2.65-4.57-.04-14.46-.02-28.92-.02-43.38v-1.32c.33.13.58.2.8.33,12.3,7.08,24.59,14.16,36.9,21.22.69.4.89.84.89,1.61-.02,15.38-.02,30.76,0,46.14,0,.8-.26,1.2-.93,1.58-13.35,7.66-26.68,15.35-40.01,23.05-.54.31-.93.38-1.52.04-12.43-7.18-24.87-14.33-37.3-21.49-.23-.13-.45-.3-.81-.54Z"/>
  <path class="cls-1" d="M130.73,30.31c0,.57,0,.92,0,1.27,0,13.26,0,26.52.01,39.78,0,.7-.13,1.16-.8,1.54-11.79,6.75-23.57,13.54-35.34,20.31-.17.1-.35.17-.65.32-.03-.43-.08-.76-.08-1.09,0-13.3,0-26.6-.02-39.9,0-.7.13-1.16.8-1.55,11.79-6.76,23.56-13.55,35.33-20.33.17-.1.35-.17.74-.35Z"/>
  <path class="cls-1" d="M83.45,93.32c-8.25-4.75-16.31-9.4-24.38-14.05-3.7-2.13-7.4-4.28-11.12-6.39-.64-.36-.87-.77-.86-1.51.02-13.34.02-26.67.02-40.01,0-.27.02-.53.04-.98.74.42,1.36.76,1.96,1.11,11.15,6.42,22.29,12.85,33.44,19.26.59.34.97.64.97,1.44-.03,13.42-.02,26.83-.02,40.25,0,.23-.03.45-.06.87Z"/>
  <path class="cls-2" d="M518.21,52.46c5.38,0,10.7-.14,16,.05,3.05.11,6.16.47,9.1,1.23,9.63,2.51,15.78,10.49,16.13,20.46.17,4.7-.33,9.25-2.53,13.48-3.39,6.53-9.06,9.92-16.06,11.26-2.46.47-4.99.64-7.5.69-4.64.11-9.28.03-13.92.03h-1.22v-47.22ZM530.51,64.25v23.42c2.79.35,6.06.1,8.46-.65,4.78-1.48,7.67-5.24,7.87-10.26.22-5.48-2.32-9.58-7.09-11.44-2.97-1.16-6.06-1.2-9.24-1.07Z"/>
  <path class="cls-2" d="M340.5,70.08h13.96v-17.55h12.47v47.08h-12.41v-17.66h-13.93v17.63h-12.6v-47.05h12.52v17.54Z"/>
  <path class="cls-4" d="M516.92,115h12.64v1.43c0,9.43,0,18.85,0,28.28,0,3.62,2.4,6.25,6.13,6.75,3.26.43,6.66-1.73,7.51-4.84.22-.79.27-1.65.27-2.48.02-9.19.01-18.37.01-27.56v-1.53h12.53c.02.09.1.23.1.38,0,9.94.12,19.89-.04,29.83-.13,8.56-5.36,15.23-13.66,17.36-8.25,2.12-15.63.47-21.45-6.1-2.65-3-4-6.63-4.03-10.64-.06-10.06-.02-20.13-.02-30.19,0-.19,0-.39,0-.7Z"/>
  <path class="cls-2" d="M513.43,99.68c-4.46,0-8.74.02-13.02-.03-.35,0-.84-.37-1-.7-.63-1.28-1.18-2.61-1.72-3.94-.23-.58-.51-.86-1.22-.86-5.32.04-10.64,0-15.96.05-.38,0-.91.4-1.09.76-.67,1.31-1.19,2.7-1.82,4.03-.14.29-.52.67-.8.67-4.35.04-8.7.03-13.2.03.16-.43.27-.76.41-1.07,6.94-15.13,13.9-30.26,20.82-45.41.47-1.03.97-1.57,2.2-1.42,1.14.14,2.32.07,3.47.02.68-.03,1.06.15,1.36.81,7.08,15.46,14.19,30.91,21.3,46.37.08.17.13.36.25.7ZM493.26,84.85c-1.59-3.68-3.13-7.23-4.74-10.95-1.63,3.75-3.17,7.3-4.76,10.95h9.5Z"/>
  <path class="cls-4" d="M441.94,81.15v6.75h18.09v11.71h-30.48v-47.08h30.49v11.59h-18.11v6.55h14.91v10.49h-14.92Z"/>
  <path class="cls-2" d="M256.1,64.09v6.57h14.83v10.44h-14.8v6.81h18.07v11.7h-30.51v-47.07h30.53v11.55h-18.12Z"/>
  <path class="cls-2" d="M476.03,121.03c-2.41,3.08-4.8,6.12-7.21,9.2-2.24-1.92-4.66-3.34-7.47-4.03-7.93-1.94-15.92,4.13-16.1,12.23-.13,5.94,4.68,11.54,10.74,12.6,4.24.74,7.87-.61,11.21-3.05.55-.4,1.07-.84,1.68-1.32,2.38,3.15,4.75,6.3,7.18,9.52-2.67,2.46-5.67,4.28-9.04,5.49-12.92,4.65-27.95-1.83-32.83-14.16-5.69-14.36,3.21-30.19,18.55-33.2,9.36-1.83,17.74,1.54,23.3,6.71Z"/>
  <path class="cls-2" d="M315.44,67.76c-2.33-1.97-4.8-3.51-7.73-4.05-5.24-.97-9.7.56-13.05,4.68-3.17,3.9-3.75,8.37-1.56,12.9,2.31,4.78,6.31,7.25,11.66,7.44,3.49.12,6.44-1.28,9.16-3.29.51-.38,1-.79,1.58-1.24,2.38,3.17,4.75,6.31,7.17,9.52-3.01,2.76-6.38,4.72-10.22,5.87-11.24,3.38-23.77-1.18-29.79-10.84-8.16-13.09-1.91-30.59,12.8-35.77,9.63-3.39,18.37-1.6,26.28,4.73.25.2.48.42.71.64.05.05.07.14.14.28-2.34,2.99-4.7,6-7.16,9.13Z"/>
  <path class="cls-2" d="M589.25,66.77c-2.15-2.65-4.87-3.62-8.04-3.48-.47.02-.96.12-1.4.28-1.17.44-2.22,1.11-2.29,2.49-.07,1.26.92,1.91,1.92,2.36,2.19.96,4.48,1.71,6.6,2.8,2.47,1.26,5.03,2.52,7.16,4.26,7.07,5.75,6.66,15.79-.69,21.18-7.37,5.41-20.02,4.78-26.76-1.41-1.06-.98-1.86-2.24-2.63-3.2,2.62-2.73,5.04-5.26,7.54-7.87,1.81,2.37,4.09,3.8,6.88,4.39,1.86.4,3.72.48,5.56-.11,1.11-.35,2.14-.88,2.39-2.11.25-1.22-.54-2.1-1.45-2.68-1.78-1.13-3.63-2.15-5.49-3.13-2.22-1.17-4.59-2.09-6.72-3.39-4.43-2.69-7.1-6.55-6.83-11.92.27-5.44,3.28-9.18,8.01-11.48,5.8-2.81,11.73-2.79,17.57-.02,2.4,1.14,4.31,2.88,5.51,5.3.15.31.19.93,0,1.12-2.23,2.22-4.52,4.39-6.83,6.61Z"/>
  <path class="cls-2" d="M227,99.62h-12.52v-35.37h-11.34v-11.69h35.11v11.64h-11.25v35.43Z"/>
  <path class="cls-2" d="M493.82,150.35h18.08v11.64h-30.52v-46.98h12.44v35.33Z"/>
  <path class="cls-4" d="M406.06,87.89h18.08v11.72h-30.5v-47.09h12.43v35.37Z"/>
  <path class="cls-5" d="M576.02,150.74v-9.06c2.75.13,5.51.08,8.21.43,2.22.29,3.42,1.91,3.49,3.94.07,1.97-1.11,3.63-3.2,4.23-1.02.29-2.11.39-3.18.43-1.75.07-3.5.02-5.31.02Z"/>
  <path class="cls-5" d="M576.03,133.4v-7.65c1.61.12,3.25.1,4.83.39,1.77.33,2.8,1.7,2.82,3.26.02,1.64-.86,2.98-2.63,3.4-1.6.38-3.28.4-5.02.59Z"/>
  <path class="cls-5" d="M530.51,64.25c3.18-.14,6.27-.09,9.24,1.07,4.77,1.87,7.31,5.97,7.09,11.44-.2,5.02-3.09,8.78-7.87,10.26-2.4.74-5.68,1-8.46.65v-23.42Z"/>
  <path class="cls-5" d="M493.26,84.85h-9.5c1.59-3.65,3.13-7.21,4.76-10.95,1.61,3.72,3.15,7.27,4.74,10.95Z"/>
</svg>